<mxfile host="app.diagrams.net" agent="Mozilla/5.0 (Windows NT 10.0; Win64; x64) AppleWebKit/537.36 (KHTML, like Gecko) Chrome/131.0.0.0 Safari/537.36" version="24.8.6">
  <diagram id="1JJ-UvxjRfw-XplDersZ" name="Page-1">
    <mxGraphModel dx="1042" dy="1044" grid="1" gridSize="10" guides="1" tooltips="1" connect="1" arrows="1" fold="1" page="1" pageScale="1" pageWidth="1169" pageHeight="827" math="0" shadow="0">
      <root>
        <mxCell id="0" />
        <mxCell id="1" parent="0" />
        <mxCell id="hzY4ub-7oXIIYTqsQO8i-2" value="" style="image;sketch=0;aspect=fixed;html=1;points=[];align=center;fontSize=12;image=img/lib/mscae/DNS.svg;rotation=-90;" vertex="1" parent="1">
          <mxGeometry x="239.5" y="1124.25" width="94" height="94" as="geometry" />
        </mxCell>
        <mxCell id="hzY4ub-7oXIIYTqsQO8i-4" value="" style="verticalLabelPosition=bottom;dashed=0;shadow=0;html=1;align=center;verticalAlign=top;shape=mxgraph.cabinets.coverPlate;rotation=90;" vertex="1" parent="1">
          <mxGeometry x="214.5" y="560" width="110" height="66.87" as="geometry" />
        </mxCell>
        <mxCell id="hzY4ub-7oXIIYTqsQO8i-7" value="" style="sketch=0;pointerEvents=1;shadow=0;dashed=0;html=1;strokeColor=none;fillColor=#505050;labelPosition=center;verticalLabelPosition=bottom;outlineConnect=0;verticalAlign=top;align=center;shape=mxgraph.office.clouds.cloud;rotation=-90;" vertex="1" parent="1">
          <mxGeometry x="-20" y="995.25" width="150" height="62.5" as="geometry" />
        </mxCell>
        <mxCell id="hzY4ub-7oXIIYTqsQO8i-8" value="" style="html=1;verticalLabelPosition=bottom;align=center;labelBackgroundColor=#ffffff;verticalAlign=top;strokeWidth=2;strokeColor=#0080F0;shadow=0;dashed=0;shape=mxgraph.ios7.icons.smartphone;rotation=-90;" vertex="1" parent="1">
          <mxGeometry x="260" y="1290" width="48" height="100" as="geometry" />
        </mxCell>
        <mxCell id="hzY4ub-7oXIIYTqsQO8i-10" value="" style="endArrow=classic;html=1;rounded=0;" edge="1" parent="1">
          <mxGeometry width="50" height="50" relative="1" as="geometry">
            <mxPoint x="240" y="1340" as="sourcePoint" />
            <mxPoint x="80" y="1120" as="targetPoint" />
            <Array as="points">
              <mxPoint x="80" y="1340" />
            </Array>
          </mxGeometry>
        </mxCell>
        <mxCell id="hzY4ub-7oXIIYTqsQO8i-11" value="阿里云对象存储服务oss" style="text;strokeColor=none;align=center;fillColor=none;html=1;verticalAlign=middle;whiteSpace=wrap;rounded=0;rotation=-90;" vertex="1" parent="1">
          <mxGeometry x="36.25" y="1009" width="137.5" height="40" as="geometry" />
        </mxCell>
        <mxCell id="hzY4ub-7oXIIYTqsQO8i-12" value="HTTPS" style="text;strokeColor=none;align=center;fillColor=none;html=1;verticalAlign=middle;whiteSpace=wrap;rounded=0;" vertex="1" parent="1">
          <mxGeometry x="123.75" y="1340" width="60" height="30" as="geometry" />
        </mxCell>
        <mxCell id="hzY4ub-7oXIIYTqsQO8i-14" value="" style="endArrow=classic;html=1;rounded=0;" edge="1" parent="1">
          <mxGeometry width="50" height="50" relative="1" as="geometry">
            <mxPoint x="278.79" y="1320" as="sourcePoint" />
            <mxPoint x="280" y="1210" as="targetPoint" />
          </mxGeometry>
        </mxCell>
        <mxCell id="hzY4ub-7oXIIYTqsQO8i-15" value="" style="sketch=0;pointerEvents=1;shadow=0;dashed=0;html=1;strokeColor=none;fillColor=#505050;labelPosition=center;verticalLabelPosition=bottom;outlineConnect=0;verticalAlign=top;align=center;shape=mxgraph.office.clouds.cloud;rotation=-90;" vertex="1" parent="1">
          <mxGeometry x="194.5" y="910" width="130" height="62.5" as="geometry" />
        </mxCell>
        <mxCell id="hzY4ub-7oXIIYTqsQO8i-17" value="Internet" style="text;strokeColor=none;align=center;fillColor=none;html=1;verticalAlign=middle;whiteSpace=wrap;rounded=0;rotation=-90;" vertex="1" parent="1">
          <mxGeometry x="273.5" y="921.87" width="60" height="30" as="geometry" />
        </mxCell>
        <mxCell id="hzY4ub-7oXIIYTqsQO8i-18" value="" style="sketch=0;aspect=fixed;pointerEvents=1;shadow=0;dashed=0;html=1;strokeColor=none;labelPosition=center;verticalLabelPosition=bottom;verticalAlign=top;align=center;fillColor=#00188D;shape=mxgraph.mscae.enterprise.firewall;rotation=-90;" vertex="1" parent="1">
          <mxGeometry x="236.69" y="709.25" width="77.42" height="68.13" as="geometry" />
        </mxCell>
        <mxCell id="hzY4ub-7oXIIYTqsQO8i-19" value="" style="endArrow=classic;html=1;rounded=0;" edge="1" parent="1">
          <mxGeometry width="50" height="50" relative="1" as="geometry">
            <mxPoint x="273.5" y="871.87" as="sourcePoint" />
            <mxPoint x="273.5" y="781.87" as="targetPoint" />
          </mxGeometry>
        </mxCell>
        <mxCell id="hzY4ub-7oXIIYTqsQO8i-20" value="" style="endArrow=classic;html=1;rounded=0;" edge="1" parent="1">
          <mxGeometry width="50" height="50" relative="1" as="geometry">
            <mxPoint x="268.5" y="711.87" as="sourcePoint" />
            <mxPoint x="269.18" y="651.87" as="targetPoint" />
          </mxGeometry>
        </mxCell>
        <mxCell id="hzY4ub-7oXIIYTqsQO8i-21" value="Nginx反向代理" style="text;html=1;align=center;verticalAlign=middle;resizable=0;points=[];autosize=1;strokeColor=none;fillColor=none;rotation=-90;" vertex="1" parent="1">
          <mxGeometry x="273.5" y="586.87" width="100" height="30" as="geometry" />
        </mxCell>
        <mxCell id="hzY4ub-7oXIIYTqsQO8i-23" value="" style="endArrow=classic;html=1;rounded=0;entryX=-0.029;entryY=0.828;entryDx=0;entryDy=0;entryPerimeter=0;" edge="1" parent="1" target="hzY4ub-7oXIIYTqsQO8i-15">
          <mxGeometry width="50" height="50" relative="1" as="geometry">
            <mxPoint x="280" y="1120" as="sourcePoint" />
            <mxPoint x="275" y="1020" as="targetPoint" />
          </mxGeometry>
        </mxCell>
        <mxCell id="hzY4ub-7oXIIYTqsQO8i-25" value="DNS域名解析" style="text;strokeColor=none;align=center;fillColor=none;html=1;verticalAlign=middle;whiteSpace=wrap;rounded=0;rotation=-90;" vertex="1" parent="1">
          <mxGeometry x="300" y="1158.75" width="100" height="30" as="geometry" />
        </mxCell>
        <mxCell id="hzY4ub-7oXIIYTqsQO8i-26" value="防火墙" style="text;strokeColor=none;align=center;fillColor=none;html=1;verticalAlign=middle;whiteSpace=wrap;rounded=0;rotation=-90;" vertex="1" parent="1">
          <mxGeometry x="300" y="728.3199999999999" width="60" height="30" as="geometry" />
        </mxCell>
        <mxCell id="hzY4ub-7oXIIYTqsQO8i-29" value="" style="endArrow=classic;html=1;rounded=0;" edge="1" parent="1">
          <mxGeometry width="50" height="50" relative="1" as="geometry">
            <mxPoint x="268.67" y="530" as="sourcePoint" />
            <mxPoint x="269" y="450" as="targetPoint" />
          </mxGeometry>
        </mxCell>
        <mxCell id="hzY4ub-7oXIIYTqsQO8i-30" value="" style="outlineConnect=0;dashed=0;verticalLabelPosition=bottom;verticalAlign=top;align=center;html=1;shape=mxgraph.aws3.traditional_server;fillColor=#7D7C7C;gradientColor=none;" vertex="1" parent="1">
          <mxGeometry x="244.5" y="360" width="50" height="83" as="geometry" />
        </mxCell>
        <mxCell id="hzY4ub-7oXIIYTqsQO8i-31" value="服务器" style="text;strokeColor=none;align=center;fillColor=none;html=1;verticalAlign=middle;whiteSpace=wrap;rounded=0;rotation=-90;" vertex="1" parent="1">
          <mxGeometry x="293.5" y="399" width="60" height="30" as="geometry" />
        </mxCell>
        <mxCell id="hzY4ub-7oXIIYTqsQO8i-32" value="转发请求" style="text;strokeColor=none;align=center;fillColor=none;html=1;verticalAlign=middle;whiteSpace=wrap;rounded=0;rotation=-90;" vertex="1" parent="1">
          <mxGeometry x="260" y="480" width="60" height="30" as="geometry" />
        </mxCell>
        <mxCell id="hzY4ub-7oXIIYTqsQO8i-33" value="" style="endArrow=classic;html=1;rounded=0;" edge="1" parent="1">
          <mxGeometry width="50" height="50" relative="1" as="geometry">
            <mxPoint x="260" y="360" as="sourcePoint" />
            <mxPoint x="170" y="300" as="targetPoint" />
            <Array as="points">
              <mxPoint x="260" y="300" />
            </Array>
          </mxGeometry>
        </mxCell>
        <mxCell id="hzY4ub-7oXIIYTqsQO8i-34" value="" style="endArrow=classic;html=1;rounded=0;" edge="1" parent="1">
          <mxGeometry width="50" height="50" relative="1" as="geometry">
            <mxPoint x="283.23" y="360" as="sourcePoint" />
            <mxPoint x="370" y="300" as="targetPoint" />
            <Array as="points">
              <mxPoint x="283" y="300" />
            </Array>
          </mxGeometry>
        </mxCell>
        <mxCell id="hzY4ub-7oXIIYTqsQO8i-35" value="" style="image;sketch=0;aspect=fixed;html=1;points=[];align=center;fontSize=12;image=img/lib/mscae/Cache_Redis_Product.svg;" vertex="1" parent="1">
          <mxGeometry x="380" y="280" width="71.43" height="60" as="geometry" />
        </mxCell>
        <mxCell id="hzY4ub-7oXIIYTqsQO8i-36" value="" style="outlineConnect=0;dashed=0;verticalLabelPosition=bottom;verticalAlign=top;align=center;html=1;shape=mxgraph.aws3.mysql_db_instance_2;fillColor=#2E73B8;gradientColor=none;" vertex="1" parent="1">
          <mxGeometry x="85" y="270" width="60" height="63" as="geometry" />
        </mxCell>
        <mxCell id="hzY4ub-7oXIIYTqsQO8i-37" style="edgeStyle=orthogonalEdgeStyle;rounded=0;orthogonalLoop=1;jettySize=auto;html=1;exitX=0.5;exitY=1;exitDx=0;exitDy=0;exitPerimeter=0;" edge="1" parent="1" source="hzY4ub-7oXIIYTqsQO8i-36" target="hzY4ub-7oXIIYTqsQO8i-36">
          <mxGeometry relative="1" as="geometry" />
        </mxCell>
        <mxCell id="hzY4ub-7oXIIYTqsQO8i-38" value="Text" style="text;strokeColor=none;align=center;fillColor=none;html=1;verticalAlign=middle;whiteSpace=wrap;rounded=0;" vertex="1" parent="1">
          <mxGeometry x="330" y="430" width="60" height="30" as="geometry" />
        </mxCell>
        <mxCell id="hzY4ub-7oXIIYTqsQO8i-39" value="处理请求" style="text;html=1;align=center;verticalAlign=middle;resizable=0;points=[];autosize=1;strokeColor=none;fillColor=none;" vertex="1" parent="1">
          <mxGeometry x="236.69" y="320" width="70" height="30" as="geometry" />
        </mxCell>
      </root>
    </mxGraphModel>
  </diagram>
</mxfile>
